<svg width="123" height="25" viewBox="0 0 123 25" fill="none" xmlns="http://www.w3.org/2000/svg">
<path d="M116.894 24.858H44.4724L50.6385 0.253906H123L116.894 24.858Z" fill="#009481"/>
<path d="M71.4942 15.4273L72.1591 12.8278H63.7563L64.1794 11.0143L69.0761 10.2284L69.6201 7.93119H70.406L69.6201 11.0143H72.5218L73.9122 5.33174H66.5975L67.0811 3.27637H64.1794L63.6958 5.33174H56.2602L54.8698 11.0143H57.6506L57.3483 12.1628L61.1568 11.5583L60.8546 12.8278H54.3862L53.7212 15.4273H60.1291L58.5574 21.5934H69.9224L71.1314 16.6968H68.1693L67.6252 18.9939H62.1241L63.0308 15.3668H71.4942M58.1342 9.4425L58.4969 7.99164H67.0811L58.1342 9.4425Z" fill="#FDD000"/>
<path d="M91.5643 3.63867H82.3151C80.6224 5.08953 77.8416 7.08445 75.2422 8.4144L77.1766 10.3489C77.4789 10.1675 77.7811 9.98616 78.0834 9.8048H90.597L90.4157 10.5907H75.3026L74.6376 13.1297H89.7507L89.5693 13.9156H76.5116L75.8467 16.515H77.1162L74.3354 19.2353L72.0986 19.8399L75.6049 21.593L80.7433 16.4545H80.9851L79.9574 21.593L85.9422 20.8071L87.6953 21.593L86.9699 17.7845L83.5241 18.2681L83.8868 16.4545H85.1563V17.5427L87.9976 17.18V16.515H91.8665L94.1637 7.26581H87.8162L91.5643 3.63867ZM84.1286 7.20535H81.9523C82.4964 6.78219 82.98 6.41947 83.2823 6.17767H85.2168L84.1286 7.20535Z" fill="#FDD000"/>
<path d="M87.7556 17.9056L88.4206 21.3514L91.0805 20.2028L90.4155 16.8779L87.7556 17.9056Z" fill="#FDD000"/>
<path d="M114.899 6.17767L115.564 3.63867H103.836L103.534 4.90817L101.297 3.63867C99.4232 6.47993 96.7633 9.74435 94.1638 12.2833L96.4005 13.6737C96.7028 13.3715 97.0051 13.0692 97.3073 12.7065L95.0706 21.6534H97.9723L101.418 7.80988C102.144 6.78219 102.869 5.81495 103.473 4.90817L103.171 6.17767H107.524L107.282 7.20535H102.929L100.632 16.4545H104.441C103.655 17.4218 101.902 18.7517 99.5441 18.7517L98.8186 21.593H99.4836C101.66 21.593 103.594 20.8676 105.045 19.719L111.03 21.593L111.695 18.8122L107.161 17.4218C107.403 17.1195 107.584 16.7568 107.766 16.3941H112.299L114.597 7.1449H110.184L110.425 6.11721H114.899M105.71 13.9156H104.259L104.441 13.1297H105.892L105.71 13.9156ZM106.496 10.5907H105.045L105.227 9.8048H106.677L106.496 10.5907ZM110.123 13.9156H108.612L108.793 13.1297H110.244L110.123 13.9156ZM111.09 9.8048L110.909 10.5907H109.458L109.64 9.8048H111.09Z" fill="#FDD000"/>
<path d="M120.038 22.3191H120.703C120.824 22.3191 121.065 22.3191 121.065 22.5609C121.065 22.8027 120.884 22.8631 120.642 22.8631H120.038V22.3191ZM120.038 23.0445H120.642C120.944 23.0445 121.005 23.2258 121.005 23.3467C121.005 23.4072 121.005 23.649 121.065 23.7699H121.368V23.7095C121.307 23.649 121.247 23.649 121.247 23.5281V23.2258C121.247 22.984 121.126 22.984 121.005 22.9236C121.126 22.8631 121.247 22.8027 121.247 22.5609C121.247 22.1981 120.944 22.1377 120.642 22.1377H119.796V23.7095H120.038V23.0445Z" fill="#040000"/>
<path d="M119.01 22.984C119.01 23.7698 119.675 24.4348 120.521 24.4348C121.307 24.4348 121.972 23.7698 121.972 22.984C121.972 22.1376 121.307 21.4727 120.521 21.4727C119.675 21.4727 119.01 22.1376 119.01 22.984ZM119.252 22.984C119.252 22.319 119.796 21.7145 120.521 21.7145C121.186 21.7145 121.791 22.2585 121.791 22.984C121.791 23.6489 121.247 24.2535 120.521 24.2535C119.796 24.193 119.252 23.6489 119.252 22.984Z" fill="#040000"/>
<path d="M17.2086 24.9793C26.657 24.9793 34.3166 19.5121 34.3166 12.768C34.3166 6.02385 26.657 0.556641 17.2086 0.556641C7.76009 0.556641 0.100586 6.02385 0.100586 12.768C0.100586 19.5121 7.76009 24.9793 17.2086 24.9793Z" fill="#FDD000"/>
<path d="M32.3215 9.92586L31.9588 8.53546L31.8983 8.47501L25.7927 10.7722H15.5762V10.6513C15.5762 10.6513 15.7576 10.4699 15.8785 10.1072C16.0599 9.56315 16.1808 8.95863 16.1808 8.2332V4.36426H15.7576L13.2791 6.90325H9.34966L6.87111 4.36426H6.44795V8.2332C6.44795 9.01908 6.56885 9.68405 6.81066 10.2281C7.23383 11.0745 7.71745 11.3163 7.71745 11.3163V11.4372H7.65699H7.23383L5.90388 10.1072H5.48071V12.223C5.48071 12.888 5.66207 13.4321 5.90388 13.7948C6.20614 14.218 6.56885 14.4598 7.05247 14.6411C7.29428 14.762 7.59654 14.762 7.7779 14.762V14.9434H6.02478L5.96433 15.0039V15.7293L6.08524 15.8502L7.71745 16.6965V17.9056L6.5084 18.7519L6.44795 18.8123V19.5982L6.5084 19.6587H7.71745C9.65192 19.6587 11.2237 18.0869 11.2237 16.1524V14.8225L12.3723 16.2129L11.0423 21.3513L11.1028 21.4118H13.2791L13.4 21.3513L16.9062 17.2406H22.5887L26.0949 21.3513L26.2158 21.4118H28.3921L28.4526 21.3513L26.5181 13.6134L32.3215 9.92586Z" fill="black"/>
<path d="M12.1304 9.26099C12.0699 9.14009 12.0699 8.95873 12.2513 8.77737C12.3118 8.71692 12.9767 8.29376 14.0044 8.17285C14.2462 8.17285 14.4276 8.29376 14.4276 8.53556C14.4276 8.77737 14.3067 8.89828 14.0044 8.89828C13.2185 8.95873 12.614 9.26099 12.4931 9.32144C12.4327 9.44235 12.2513 9.44235 12.1304 9.26099Z" fill="#FDD000"/>
<path d="M10.4981 9.26099C10.5586 9.14009 10.5586 8.95873 10.3772 8.77737C10.3168 8.71692 9.65178 8.29376 8.62409 8.17285C8.38228 8.17285 8.20093 8.29376 8.20093 8.53556C8.20093 8.77737 8.32183 8.89828 8.62409 8.89828C9.40997 8.95873 10.0145 9.26099 10.1354 9.32144C10.1959 9.44235 10.3772 9.44235 10.4981 9.26099Z" fill="#FDD000"/>
<path d="M9.28898 13.1296C9.22852 13.0087 9.22852 12.8878 9.34943 12.7669C9.40988 12.7065 9.8935 12.4042 10.6189 12.3438C10.8003 12.3438 10.9212 12.4042 10.9212 12.5856C10.9212 12.7669 10.8607 12.8274 10.6189 12.8878C10.0749 12.9483 9.59124 13.1901 9.47033 13.1901C9.53078 13.2505 9.40988 13.2505 9.28898 13.1296Z" fill="#FDD000"/>
<path d="M8.32166 13.1296C8.38212 13.0087 8.38212 12.8878 8.26121 12.7669C8.20076 12.7065 7.71714 12.4042 6.99171 12.3438C6.81036 12.3438 6.68945 12.4042 6.68945 12.5856C6.68945 12.7669 6.74991 12.8274 6.99171 12.8878C7.53578 12.9483 8.0194 13.1901 8.14031 13.1901C8.14031 13.2505 8.26121 13.2505 8.32166 13.1296Z" fill="#FDD000"/>
</svg>
