<svg width="44" height="44" viewBox="0 0 44 44" fill="none" xmlns="http://www.w3.org/2000/svg">
<path d="M33.6674 9.96795L40.1215 3.57549C40.3956 3.3041 40.8488 3.3487 41.0647 3.6683L42.5535 5.87251C42.7586 6.17613 42.6547 6.59052 42.3306 6.76145L34.3877 10.9497C34.2535 11.0204 34.098 11.0391 33.9509 11.0023C33.8038 10.9654 33.6755 10.8755 33.5906 10.7498C33.5103 10.631 33.474 10.4878 33.488 10.345C33.502 10.2023 33.5655 10.0689 33.6674 9.96795ZM34.7348 15.4576C34.7589 15.5758 34.8259 15.6809 34.9229 15.7528C35.0199 15.8247 35.1399 15.8582 35.2601 15.8469L42.3742 15.1828C42.4427 15.1764 42.5091 15.1557 42.569 15.1219C42.629 15.0881 42.6811 15.0421 42.7221 14.9868C42.7631 14.9316 42.7919 14.8683 42.8068 14.8011C42.8217 14.7339 42.8222 14.6644 42.8084 14.597L42.384 12.5234C42.3225 12.2228 42.0028 12.0521 41.7187 12.1684L35.0291 14.906C34.9235 14.9492 34.8363 15.028 34.7825 15.1287C34.7288 15.2294 34.7119 15.3457 34.7348 15.4576ZM29.4231 7.90846C29.5238 7.97495 29.6455 8.00192 29.7648 7.98419C29.8842 7.96645 29.9928 7.90527 30.0698 7.81238L34.6306 2.31238C34.6745 2.25941 34.7068 2.19779 34.7253 2.13152C34.7438 2.06526 34.7481 1.99584 34.738 1.92778C34.7279 1.85973 34.7036 1.79457 34.6666 1.73655C34.6296 1.67852 34.5809 1.62894 34.5235 1.59102L32.7572 0.424934C32.5011 0.255895 32.1543 0.361255 32.0357 0.644333L29.2412 7.31042C29.1971 7.41567 29.1911 7.53303 29.2243 7.64223C29.2575 7.75142 29.3278 7.84559 29.4231 7.90846Z" fill="#FFD469"/>
<path d="M18.769 41.2361L17.395 42.0396C16.2782 42.6928 14.8434 42.3169 14.1902 41.2L10.5474 34.9707C9.89423 33.8538 10.2701 32.419 11.387 31.7659L12.7609 30.9624C13.8778 30.3093 15.3126 30.6852 15.9657 31.802L19.6086 38.0314C20.2618 39.1482 19.8858 40.583 18.769 41.2361Z" fill="#00B1FF"/>
<path d="M10.3471 35.1226L23.6598 27.8746L14.5592 13.6255L2.52526 22.5658C2.44766 22.6154 -0.804904 25.5914 2.76709 31.1843C6.33908 36.7772 10.3471 35.1226 10.3471 35.1226Z" fill="#0096D1"/>
<path d="M31.155 13.0824C35.1369 19.317 37.5493 26.0711 35.8834 27.135C34.2175 28.1989 29.1042 23.1699 25.1223 16.9352C21.1404 10.7005 18.7281 3.94652 20.3939 2.88253C22.0597 1.81854 27.1731 6.84769 31.155 13.0824Z" fill="#727272"/>
<path d="M29.2803 21.7335C30.6603 20.8521 30.2649 17.7669 28.3971 14.8426C26.5293 11.9183 23.8964 10.2623 22.5164 11.1437C21.1363 12.0252 21.5317 15.1104 23.3995 18.0347C25.2673 20.959 27.9002 22.615 29.2803 21.7335Z" fill="#B2B2B2"/>
<path d="M35.8107 27.1812C34.3556 28.1105 29.4132 22.9723 25.4312 16.7376C21.4493 10.503 18.866 3.85802 20.3211 2.92869C20.4049 2.87515 20.4989 2.83983 20.6016 2.82032C19.9152 2.80459 19.2426 3.16261 18.8446 3.92367C17.0908 7.27764 12.615 14.719 12.615 14.719C12.615 14.719 10.3939 17.7096 14.2983 23.8228C18.2027 29.9359 21.9722 29.1709 21.9722 29.1709C21.9722 29.1709 30.5352 28.2961 34.2977 28.1165C35.1884 28.0739 35.8088 27.5793 36.0665 26.9121C35.9981 27.0247 35.9135 27.1155 35.8107 27.1812Z" fill="#D1D1D1"/>
<path d="M4.54564 26.4838C4.34214 26.484 4.14186 26.4329 3.96335 26.3352C3.78485 26.2375 3.63389 26.0963 3.52444 25.9248C3.16462 25.3613 3.32962 24.613 3.89303 24.2532L8.86975 21.0747C9.43307 20.715 10.1815 20.8799 10.5413 21.4433C10.9011 22.0067 10.7361 22.755 10.1727 23.1149L5.19601 26.2933C5.00191 26.4177 4.77619 26.4838 4.54564 26.4838Z" fill="#00B1FF"/>
</svg>
