<svg width="80" height="19" viewBox="0 0 80 19" fill="none" xmlns="http://www.w3.org/2000/svg">
<path d="M1.3 0.979999H18.7V2.54H1.3V0.979999ZM2.78 3.16H17.42V4.58H2.78V3.16ZM13.06 6.44V7.32H15.6V6.44H13.06ZM8.7 6.44V7.32H11.16V6.44H8.7ZM4.38 6.44V7.32H6.78V6.44H4.38ZM2.26 5.12H17.84V8.64H2.26V5.12ZM8.74 0.0199993H11.12V3.9H8.74V0.0199993ZM5.76 12.32V13.02H14.4V12.32H5.76ZM5.76 14.2V14.92H14.4V14.2H5.76ZM5.76 10.48V11.14H14.4V10.48H5.76ZM3.44 9.2H16.84V16.16H3.44V9.2ZM11.1 17.24L13.14 16.12C15.3 16.64 17.86 17.32 19.36 17.84L16.52 18.9C15.36 18.4 13.28 17.76 11.1 17.24ZM6.82 16.04L8.86 17C7.14 17.76 4.46 18.46 2.4 18.84C2 18.38 1.22 17.58 0.7 17.2C2.88 16.98 5.38 16.56 6.82 16.04ZM28.74 0.039999H31.2V2.9H28.74V0.039999ZM21.52 1.6H38.54V6.12H36.1V3.78H23.86V6.12H21.52V1.6ZM24.56 5.06H35.36V7.1H24.56V5.06ZM26.52 8.62L28.36 7.54C33.08 10.82 33.04 16.46 30.9 18C30.14 18.66 29.5 18.84 28.44 18.84C27.94 18.86 27.34 18.84 26.74 18.8C26.7 18.14 26.48 17.18 26.06 16.5C26.8 16.58 27.46 16.6 27.98 16.6C28.48 16.6 28.86 16.54 29.2 16.18C30.34 15.3 30.34 11.34 26.52 8.62ZM29.68 5.58L31.66 6.4C29.54 8.56 25.9 10.1 22.56 10.98C22.34 10.52 21.72 9.56 21.34 9.12C24.52 8.48 27.94 7.24 29.68 5.58ZM28.12 9.56L29.66 10.64C28 11.92 25.06 13.4 22.82 14.18C22.56 13.66 22.06 12.84 21.62 12.36C23.8 11.84 26.7 10.64 28.12 9.56ZM29.74 11.46L31.38 12.68C29.24 14.72 25.34 16.84 22.16 17.9C21.88 17.3 21.36 16.44 20.9 15.92C24.06 15.14 27.88 13.26 29.74 11.46ZM32.78 5.92C33.74 10.12 35.8 13.7 39.34 15.28C38.8 15.76 38.04 16.72 37.68 17.38C33.9 15.36 31.9 11.36 30.76 6.32L32.78 5.92ZM36.68 7.22L38.56 8.84C37.18 9.88 35.44 11 34.14 11.66L32.6 10.22C33.86 9.5 35.64 8.22 36.68 7.22ZM41.74 3.5H58.28V13.54H55.76V5.86H44.16V13.64H41.74V3.5ZM43 10.16H57.16V12.52H43V10.16ZM48.68 0.0199993H51.22V18.8H48.68V0.0199993ZM65.94 5.74H68.44V15.3C68.44 16.28 68.6 16.42 69.54 16.42C69.96 16.42 71.76 16.42 72.28 16.42C73.26 16.42 73.42 15.76 73.58 12.62C74.12 13.06 75.14 13.5 75.82 13.66C75.54 17.42 74.88 18.6 72.48 18.6C71.94 18.6 69.74 18.6 69.22 18.6C66.66 18.6 65.94 17.82 65.94 15.3V5.74ZM66.02 1.94L67.58 0.0799997C69.94 0.92 72.7 2.42 74.3 3.58L72.7 5.7C71.18 4.42 68.38 2.86 66.02 1.94ZM62.34 7.16L64.7 7.64C64.4 10.42 63.88 13.5 62.56 15.46L60.32 14.18C61.5 12.46 62.08 9.84 62.34 7.16ZM73.86 7.48L76.06 6.38C77.78 8.58 79.22 11.52 79.7 13.62L77.26 14.82C76.86 12.76 75.46 9.68 73.86 7.48Z" fill="#B8860B"/>
</svg>
