<svg width="277" height="64" viewBox="0 0 277 64" fill="none" xmlns="http://www.w3.org/2000/svg">
<path opacity="0.3" d="M32 13.333C26.8534 13.333 18.6667 26.4263 18.6667 37.333C18.6667 44.693 24.64 50.6663 32 50.6663C39.36 50.6663 45.3334 44.693 45.3334 37.333C45.3334 26.4263 37.1467 13.333 32 13.333ZM34.6667 47.9997C26.64 47.9997 21.3334 42.6663 21.3334 34.6663C21.3334 33.1997 22.5334 31.9997 24 31.9997C25.4667 31.9997 26.6667 33.1997 26.6667 34.6663C26.6667 42.453 33.12 42.6663 34.6667 42.6663C36.1334 42.6663 37.3334 43.8663 37.3334 45.333C37.3334 46.7997 36.1334 47.9997 34.6667 47.9997Z" fill="white"/>
<path d="M32 8C22.6666 8 13.3333 24.88 13.3333 37.3333C13.3333 47.6533 21.68 56 32 56C42.32 56 50.6666 47.6533 50.6666 37.3333C50.6666 24.88 41.3333 8 32 8ZM32 50.6667C24.64 50.6667 18.6666 44.6933 18.6666 37.3333C18.6666 26.4267 26.8533 13.3333 32 13.3333C37.1466 13.3333 45.3333 26.4267 45.3333 37.3333C45.3333 44.6933 39.36 50.6667 32 50.6667Z" fill="white"/>
<path d="M34.6666 42.6667C33.12 42.6667 26.6666 42.4533 26.6666 34.6667C26.6666 33.2 25.4666 32 24 32C22.5333 32 21.3333 33.2 21.3333 34.6667C21.3333 42.6667 26.64 48 34.6666 48C36.1333 48 37.3333 46.8 37.3333 45.3333C37.3333 43.8667 36.1333 42.6667 34.6666 42.6667Z" fill="white"/>
<path d="M78.44 31.96H89.76V46.76C88.2667 47.2667 86.7067 47.6667 85.08 47.96C83.48 48.2533 81.6533 48.4 79.6 48.4C76.7733 48.4 74.36 47.84 72.36 46.72C70.3867 45.6 68.88 43.9467 67.84 41.76C66.8267 39.5733 66.32 36.88 66.32 33.68C66.32 30.6933 66.8933 28.1067 68.04 25.92C69.2133 23.7333 70.9067 22.04 73.12 20.84C75.3333 19.64 78.04 19.04 81.24 19.04C82.76 19.04 84.2533 19.2 85.72 19.52C87.1867 19.84 88.52 20.2667 89.72 20.8L87.72 25.64C86.84 25.1867 85.84 24.8133 84.72 24.52C83.6 24.2267 82.4267 24.08 81.2 24.08C79.44 24.08 77.9067 24.48 76.6 25.28C75.32 26.08 74.32 27.2133 73.6 28.68C72.9067 30.12 72.56 31.8267 72.56 33.8C72.56 35.6667 72.8133 37.32 73.32 38.76C73.8267 40.2 74.6267 41.3333 75.72 42.16C76.8133 42.96 78.24 43.36 80 43.36C80.5867 43.36 81.0933 43.3467 81.52 43.32C81.9733 43.2667 82.3867 43.2133 82.76 43.16C83.1333 43.08 83.4933 43.0133 83.84 42.96V37H78.44V31.96ZM122.465 33.68C122.465 35.8933 122.185 37.9067 121.625 39.72C121.092 41.5067 120.265 43.0533 119.145 44.36C118.052 45.6667 116.639 46.6667 114.905 47.36C113.199 48.0533 111.185 48.4 108.865 48.4C106.545 48.4 104.519 48.0533 102.785 47.36C101.079 46.64 99.6653 45.64 98.5453 44.36C97.452 43.0533 96.6253 41.4933 96.0653 39.68C95.532 37.8667 95.2653 35.8533 95.2653 33.64C95.2653 30.68 95.7453 28.1067 96.7053 25.92C97.692 23.7333 99.1853 22.04 101.185 20.84C103.212 19.6133 105.785 19 108.905 19C111.999 19 114.545 19.6133 116.545 20.84C118.545 22.04 120.025 23.7467 120.985 25.96C121.972 28.1467 122.465 30.72 122.465 33.68ZM101.625 33.68C101.625 35.68 101.879 37.4 102.385 38.84C102.892 40.28 103.679 41.3867 104.745 42.16C105.812 42.9333 107.185 43.32 108.865 43.32C110.599 43.32 111.985 42.9333 113.025 42.16C114.092 41.3867 114.865 40.28 115.345 38.84C115.852 37.4 116.105 35.68 116.105 33.68C116.105 30.6667 115.545 28.3067 114.425 26.6C113.305 24.8933 111.465 24.04 108.905 24.04C107.199 24.04 105.812 24.4267 104.745 25.2C103.679 25.9733 102.892 27.08 102.385 28.52C101.879 29.96 101.625 31.68 101.625 33.68ZM154.301 33.68C154.301 35.8933 154.021 37.9067 153.461 39.72C152.928 41.5067 152.101 43.0533 150.981 44.36C149.888 45.6667 148.475 46.6667 146.741 47.36C145.035 48.0533 143.021 48.4 140.701 48.4C138.381 48.4 136.355 48.0533 134.621 47.36C132.915 46.64 131.501 45.64 130.381 44.36C129.288 43.0533 128.461 41.4933 127.901 39.68C127.368 37.8667 127.101 35.8533 127.101 33.64C127.101 30.68 127.581 28.1067 128.541 25.92C129.528 23.7333 131.021 22.04 133.021 20.84C135.048 19.6133 137.621 19 140.741 19C143.835 19 146.381 19.6133 148.381 20.84C150.381 22.04 151.861 23.7467 152.821 25.96C153.808 28.1467 154.301 30.72 154.301 33.68ZM133.461 33.68C133.461 35.68 133.715 37.4 134.221 38.84C134.728 40.28 135.515 41.3867 136.581 42.16C137.648 42.9333 139.021 43.32 140.701 43.32C142.435 43.32 143.821 42.9333 144.861 42.16C145.928 41.3867 146.701 40.28 147.181 38.84C147.688 37.4 147.941 35.68 147.941 33.68C147.941 30.6667 147.381 28.3067 146.261 26.6C145.141 24.8933 143.301 24.04 140.741 24.04C139.035 24.04 137.648 24.4267 136.581 25.2C135.515 25.9733 134.728 27.08 134.221 28.52C133.715 29.96 133.461 31.68 133.461 33.68ZM183.897 33.44C183.897 36.64 183.284 39.32 182.057 41.48C180.831 43.64 179.044 45.2667 176.697 46.36C174.377 47.4533 171.577 48 168.297 48H160.217V19.44H169.177C172.164 19.44 174.751 19.9733 176.937 21.04C179.151 22.1067 180.857 23.68 182.057 25.76C183.284 27.8133 183.897 30.3733 183.897 33.44ZM177.617 33.6C177.617 31.4933 177.311 29.76 176.697 28.4C176.084 27.04 175.164 26.04 173.937 25.4C172.737 24.7333 171.257 24.4 169.497 24.4H166.257V43H168.857C171.817 43 174.017 42.2133 175.457 40.64C176.897 39.0667 177.617 36.72 177.617 33.6ZM216.657 48H200.217V19.44H216.657V24.4H206.257V30.68H215.937V35.64H206.257V43H216.657V48ZM233.44 31.96H244.76V46.76C243.267 47.2667 241.707 47.6667 240.08 47.96C238.48 48.2533 236.653 48.4 234.6 48.4C231.773 48.4 229.36 47.84 227.36 46.72C225.387 45.6 223.88 43.9467 222.84 41.76C221.827 39.5733 221.32 36.88 221.32 33.68C221.32 30.6933 221.893 28.1067 223.04 25.92C224.213 23.7333 225.907 22.04 228.12 20.84C230.333 19.64 233.04 19.04 236.24 19.04C237.76 19.04 239.253 19.2 240.72 19.52C242.187 19.84 243.52 20.2667 244.72 20.8L242.72 25.64C241.84 25.1867 240.84 24.8133 239.72 24.52C238.6 24.2267 237.427 24.08 236.2 24.08C234.44 24.08 232.907 24.48 231.6 25.28C230.32 26.08 229.32 27.2133 228.6 28.68C227.907 30.12 227.56 31.8267 227.56 33.8C227.56 35.6667 227.813 37.32 228.32 38.76C228.827 40.2 229.627 41.3333 230.72 42.16C231.813 42.96 233.24 43.36 235 43.36C235.587 43.36 236.093 43.3467 236.52 43.32C236.973 43.2667 237.387 43.2133 237.76 43.16C238.133 43.08 238.493 43.0133 238.84 42.96V37H233.44V31.96ZM262.385 31.96H273.705V46.76C272.212 47.2667 270.652 47.6667 269.025 47.96C267.425 48.2533 265.599 48.4 263.545 48.4C260.719 48.4 258.305 47.84 256.305 46.72C254.332 45.6 252.825 43.9467 251.785 41.76C250.772 39.5733 250.265 36.88 250.265 33.68C250.265 30.6933 250.839 28.1067 251.985 25.92C253.159 23.7333 254.852 22.04 257.065 20.84C259.279 19.64 261.985 19.04 265.185 19.04C266.705 19.04 268.199 19.2 269.665 19.52C271.132 19.84 272.465 20.2667 273.665 20.8L271.665 25.64C270.785 25.1867 269.785 24.8133 268.665 24.52C267.545 24.2267 266.372 24.08 265.145 24.08C263.385 24.08 261.852 24.48 260.545 25.28C259.265 26.08 258.265 27.2133 257.545 28.68C256.852 30.12 256.505 31.8267 256.505 33.8C256.505 35.6667 256.759 37.32 257.265 38.76C257.772 40.2 258.572 41.3333 259.665 42.16C260.759 42.96 262.185 43.36 263.945 43.36C264.532 43.36 265.039 43.3467 265.465 43.32C265.919 43.2667 266.332 43.2133 266.705 43.16C267.079 43.08 267.439 43.0133 267.785 42.96V37H262.385V31.96Z" fill="white"/>
</svg>
