<svg width="64" height="64" viewBox="0 0 64 64" fill="none" xmlns="http://www.w3.org/2000/svg">
<path opacity="0.3" d="M32.0003 13.3333C26.8537 13.3333 18.667 26.4266 18.667 37.3333C18.667 44.6933 24.6403 50.6666 32.0003 50.6666C39.3603 50.6666 45.3337 44.6933 45.3337 37.3333C45.3337 26.4266 37.147 13.3333 32.0003 13.3333ZM34.667 47.9999C26.6403 47.9999 21.3337 42.6666 21.3337 34.6666C21.3337 33.1999 22.5337 31.9999 24.0003 31.9999C25.467 31.9999 26.667 33.1999 26.667 34.6666C26.667 42.4533 33.1203 42.6666 34.667 42.6666C36.1337 42.6666 37.3337 43.8666 37.3337 45.3333C37.3337 46.7999 36.1337 47.9999 34.667 47.9999Z" fill="#B8860B"/>
<path d="M31.9997 8C22.6663 8 13.333 24.88 13.333 37.3333C13.333 47.6533 21.6797 56 31.9997 56C42.3197 56 50.6663 47.6533 50.6663 37.3333C50.6663 24.88 41.333 8 31.9997 8ZM31.9997 50.6667C24.6397 50.6667 18.6663 44.6933 18.6663 37.3333C18.6663 26.4267 26.853 13.3333 31.9997 13.3333C37.1463 13.3333 45.333 26.4267 45.333 37.3333C45.333 44.6933 39.3597 50.6667 31.9997 50.6667Z" fill="#B8860B"/>
<path d="M34.6663 42.6667C33.1197 42.6667 26.6663 42.4533 26.6663 34.6667C26.6663 33.2 25.4663 32 23.9997 32C22.533 32 21.333 33.2 21.333 34.6667C21.333 42.6667 26.6397 48 34.6663 48C36.133 48 37.333 46.8 37.333 45.3333C37.333 43.8667 36.133 42.6667 34.6663 42.6667Z" fill="#B8860B"/>
</svg>
