<svg width="146" height="22" viewBox="0 0 146 22" fill="none" xmlns="http://www.w3.org/2000/svg">
<path d="M9.108 9.772H17.032V20.132C15.9867 20.4867 14.8947 20.7667 13.756 20.972C12.636 21.1773 11.3573 21.28 9.92 21.28C7.94133 21.28 6.252 20.888 4.852 20.104C3.47067 19.32 2.416 18.1627 1.688 16.632C0.978667 15.1013 0.624 13.216 0.624 10.976C0.624 8.88533 1.02533 7.07467 1.828 5.544C2.64933 4.01333 3.83467 2.828 5.384 1.988C6.93333 1.148 8.828 0.727999 11.068 0.727999C12.132 0.727999 13.1773 0.839999 14.204 1.064C15.2307 1.288 16.164 1.58667 17.004 1.96L15.604 5.348C14.988 5.03067 14.288 4.76933 13.504 4.564C12.72 4.35867 11.8987 4.256 11.04 4.256C9.808 4.256 8.73467 4.536 7.82 5.096C6.924 5.656 6.224 6.44933 5.72 7.476C5.23467 8.484 4.992 9.67867 4.992 11.06C4.992 12.3667 5.16933 13.524 5.524 14.532C5.87867 15.54 6.43867 16.3333 7.204 16.912C7.96933 17.472 8.968 17.752 10.2 17.752C10.6107 17.752 10.9653 17.7427 11.264 17.724C11.5813 17.6867 11.8707 17.6493 12.132 17.612C12.3933 17.556 12.6453 17.5093 12.888 17.472V13.3H9.108V9.772ZM39.9257 10.976C39.9257 12.5253 39.7297 13.9347 39.3377 15.204C38.9644 16.4547 38.3857 17.5373 37.6017 18.452C36.8364 19.3667 35.8471 20.0667 34.6337 20.552C33.4391 21.0373 32.0297 21.28 30.4057 21.28C28.7817 21.28 27.3631 21.0373 26.1497 20.552C24.9551 20.048 23.9657 19.348 23.1817 18.452C22.4164 17.5373 21.8377 16.4453 21.4457 15.176C21.0724 13.9067 20.8857 12.4973 20.8857 10.948C20.8857 8.876 21.2217 7.07467 21.8937 5.544C22.5844 4.01333 23.6297 2.828 25.0297 1.988C26.4484 1.12933 28.2497 0.699999 30.4337 0.699999C32.5991 0.699999 34.3817 1.12933 35.7817 1.988C37.1817 2.828 38.2177 4.02267 38.8897 5.572C39.5804 7.10267 39.9257 8.904 39.9257 10.976ZM25.3377 10.976C25.3377 12.376 25.5151 13.58 25.8697 14.588C26.2244 15.596 26.7751 16.3707 27.5217 16.912C28.2684 17.4533 29.2297 17.724 30.4057 17.724C31.6191 17.724 32.5897 17.4533 33.3177 16.912C34.0644 16.3707 34.6057 15.596 34.9417 14.588C35.2964 13.58 35.4737 12.376 35.4737 10.976C35.4737 8.86667 35.0817 7.21467 34.2977 6.02C33.5137 4.82533 32.2257 4.228 30.4337 4.228C29.2391 4.228 28.2684 4.49867 27.5217 5.04C26.7751 5.58133 26.2244 6.356 25.8697 7.364C25.5151 8.372 25.3377 9.576 25.3377 10.976ZM62.2109 10.976C62.2109 12.5253 62.0149 13.9347 61.6229 15.204C61.2495 16.4547 60.6709 17.5373 59.8869 18.452C59.1215 19.3667 58.1322 20.0667 56.9189 20.552C55.7242 21.0373 54.3149 21.28 52.6909 21.28C51.0669 21.28 49.6482 21.0373 48.4349 20.552C47.2402 20.048 46.2509 19.348 45.4669 18.452C44.7015 17.5373 44.1229 16.4453 43.7309 15.176C43.3575 13.9067 43.1709 12.4973 43.1709 10.948C43.1709 8.876 43.5069 7.07467 44.1789 5.544C44.8695 4.01333 45.9149 2.828 47.3149 1.988C48.7335 1.12933 50.5349 0.699999 52.7189 0.699999C54.8842 0.699999 56.6669 1.12933 58.0669 1.988C59.4669 2.828 60.5029 4.02267 61.1749 5.572C61.8655 7.10267 62.2109 8.904 62.2109 10.976ZM47.6229 10.976C47.6229 12.376 47.8002 13.58 48.1549 14.588C48.5095 15.596 49.0602 16.3707 49.8069 16.912C50.5535 17.4533 51.5149 17.724 52.6909 17.724C53.9042 17.724 54.8749 17.4533 55.6029 16.912C56.3495 16.3707 56.8909 15.596 57.2269 14.588C57.5815 13.58 57.7589 12.376 57.7589 10.976C57.7589 8.86667 57.3669 7.21467 56.5829 6.02C55.7989 4.82533 54.5109 4.228 52.7189 4.228C51.5242 4.228 50.5535 4.49867 49.8069 5.04C49.0602 5.58133 48.5095 6.356 48.1549 7.364C47.8002 8.372 47.6229 9.576 47.6229 10.976ZM82.928 10.808C82.928 13.048 82.4987 14.924 81.64 16.436C80.7814 17.948 79.5307 19.0867 77.888 19.852C76.264 20.6173 74.304 21 72.008 21H66.352V1.008H72.624C74.7147 1.008 76.5254 1.38133 78.056 2.128C79.6054 2.87467 80.8 3.976 81.64 5.432C82.4987 6.86933 82.928 8.66133 82.928 10.808ZM78.532 10.92C78.532 9.44533 78.3174 8.232 77.888 7.28C77.4587 6.328 76.8147 5.628 75.956 5.18C75.116 4.71333 74.08 4.48 72.848 4.48H70.58V17.5H72.4C74.472 17.5 76.012 16.9493 77.02 15.848C78.028 14.7467 78.532 13.104 78.532 10.92ZM105.86 21H94.352V1.008H105.86V4.48H98.58V8.876H105.356V12.348H98.58V17.5H105.86V21ZM117.608 9.772H125.532V20.132C124.487 20.4867 123.395 20.7667 122.256 20.972C121.136 21.1773 119.857 21.28 118.42 21.28C116.441 21.28 114.752 20.888 113.352 20.104C111.971 19.32 110.916 18.1627 110.188 16.632C109.479 15.1013 109.124 13.216 109.124 10.976C109.124 8.88533 109.525 7.07467 110.328 5.544C111.149 4.01333 112.335 2.828 113.884 1.988C115.433 1.148 117.328 0.727999 119.568 0.727999C120.632 0.727999 121.677 0.839999 122.704 1.064C123.731 1.288 124.664 1.58667 125.504 1.96L124.104 5.348C123.488 5.03067 122.788 4.76933 122.004 4.564C121.22 4.35867 120.399 4.256 119.54 4.256C118.308 4.256 117.235 4.536 116.32 5.096C115.424 5.656 114.724 6.44933 114.22 7.476C113.735 8.484 113.492 9.67867 113.492 11.06C113.492 12.3667 113.669 13.524 114.024 14.532C114.379 15.54 114.939 16.3333 115.704 16.912C116.469 17.472 117.468 17.752 118.7 17.752C119.111 17.752 119.465 17.7427 119.764 17.724C120.081 17.6867 120.371 17.6493 120.632 17.612C120.893 17.556 121.145 17.5093 121.388 17.472V13.3H117.608V9.772ZM137.87 9.772H145.794V20.132C144.748 20.4867 143.656 20.7667 142.518 20.972C141.398 21.1773 140.119 21.28 138.682 21.28C136.703 21.28 135.014 20.888 133.614 20.104C132.232 19.32 131.178 18.1627 130.45 16.632C129.74 15.1013 129.386 13.216 129.386 10.976C129.386 8.88533 129.787 7.07467 130.59 5.544C131.411 4.01333 132.596 2.828 134.146 1.988C135.695 1.148 137.59 0.727999 139.83 0.727999C140.894 0.727999 141.939 0.839999 142.966 1.064C143.992 1.288 144.926 1.58667 145.766 1.96L144.366 5.348C143.75 5.03067 143.05 4.76933 142.266 4.564C141.482 4.35867 140.66 4.256 139.802 4.256C138.57 4.256 137.496 4.536 136.582 5.096C135.686 5.656 134.986 6.44933 134.482 7.476C133.996 8.484 133.754 9.67867 133.754 11.06C133.754 12.3667 133.931 13.524 134.286 14.532C134.64 15.54 135.2 16.3333 135.966 16.912C136.731 17.472 137.73 17.752 138.962 17.752C139.372 17.752 139.727 17.7427 140.026 17.724C140.343 17.6867 140.632 17.6493 140.894 17.612C141.155 17.556 141.407 17.5093 141.65 17.472V13.3H137.87V9.772Z" fill="#B8860B"/>
</svg>
