<svg width="976" height="141" viewBox="0 0 976 141" fill="none" xmlns="http://www.w3.org/2000/svg">
<mask id="path-1-outside-1_1546_8864" maskUnits="userSpaceOnUse" x="-15.3499" y="-15.0093" width="1010.31" height="170.87" fill="black">
<rect fill="white" x="-15.3499" y="-15.0093" width="1010.31" height="170.87"/>
<path d="M57.689 61.7375L110.893 61.836L110.764 131.396C103.741 133.764 96.4056 135.631 88.7577 136.995C81.2352 138.36 72.6486 139.033 62.998 139.015C49.7126 138.991 38.3749 136.338 28.9846 131.056C19.7197 125.775 12.6528 117.992 7.78383 107.705C3.0402 97.419 0.682303 84.756 0.710148 69.716C0.736136 55.6787 3.45331 43.5264 8.86166 33.259C14.3953 22.9919 22.3687 15.048 32.7818 9.42728C43.1949 3.80654 55.9214 1.0101 70.9614 1.03795C78.1054 1.05117 85.1227 1.81617 92.0132 3.33293C98.9037 4.84969 105.167 6.86662 110.802 9.38373L101.36 32.1143C97.2279 29.976 92.5311 28.2126 87.2697 26.8242C82.0083 25.4358 76.4949 24.7362 70.7296 24.7256C62.4576 24.7102 55.2474 26.5769 49.0992 30.3255C43.0762 34.0744 38.3664 39.3923 34.9696 46.2794C31.6984 53.0413 30.0542 61.0596 30.0371 70.3343C30.0208 79.1076 31.1971 86.8805 33.5659 93.6529C35.9347 100.425 39.6848 105.759 44.8163 109.654C49.948 113.423 56.6498 115.316 64.9218 115.331C67.6791 115.336 70.0606 115.278 72.0661 115.156C74.1973 114.909 76.1404 114.662 77.8955 114.415C79.6509 114.042 81.3435 113.732 82.9733 113.484L83.0251 85.4724L57.6452 85.4254L57.689 61.7375ZM264.593 70.2046C264.573 80.6072 263.24 90.0674 260.592 98.5852C258.07 106.978 254.171 114.24 248.896 120.372C243.746 126.503 237.094 131.191 228.942 134.435C220.914 137.678 211.449 139.29 200.545 139.27C189.641 139.25 180.118 137.603 171.978 134.329C163.963 130.93 157.329 126.218 152.076 120.192C146.949 114.041 143.077 106.702 140.461 98.1748C137.97 89.6475 136.734 80.1825 136.753 69.7799C136.779 55.8679 139.057 43.7774 143.588 33.5085C148.245 23.2397 155.278 15.2941 164.689 9.67149C174.225 3.9238 186.325 1.06353 200.989 1.09068C215.527 1.1176 227.491 4.02242 236.88 9.80515C246.27 15.4625 253.211 23.4967 257.704 33.9077C262.322 44.1936 264.618 56.2926 264.593 70.2046ZM166.645 70.0232C166.627 79.4232 167.803 87.5094 170.172 94.2818C172.541 101.054 176.228 106.262 181.235 109.906C186.242 113.55 192.693 115.38 200.589 115.394C208.736 115.409 215.256 113.604 220.151 109.978C225.171 106.353 228.815 101.158 231.084 94.3946C233.478 87.631 234.683 79.5492 234.701 70.1492C234.727 55.9866 232.115 44.8897 226.866 36.8587C221.617 28.8276 212.977 24.8009 200.945 24.7786C192.923 24.7638 186.403 26.569 181.383 30.1944C176.363 33.8198 172.656 39.0143 170.262 45.7779C167.868 52.5414 166.662 60.6232 166.645 70.0232ZM414.221 70.4816C414.202 80.8842 412.869 90.3444 410.221 98.8622C407.699 107.255 403.8 114.517 398.524 120.649C393.374 126.78 386.723 131.468 378.57 134.712C370.543 137.955 361.077 139.567 350.173 139.547C339.269 139.527 329.747 137.88 321.606 134.606C313.591 131.207 306.957 126.495 301.705 120.469C296.577 114.319 292.706 106.979 290.089 98.4518C287.598 89.9245 286.363 80.4595 286.382 70.0569C286.408 56.1449 288.686 44.0544 293.217 33.7855C297.873 23.5168 304.907 15.5711 314.317 9.94851C323.853 4.20082 335.953 1.34055 350.617 1.3677C365.156 1.39462 377.12 4.29944 386.509 10.0822C395.899 15.7396 402.84 23.7738 407.333 34.1848C411.951 44.4707 414.247 56.5696 414.221 70.4816ZM316.273 70.3002C316.256 79.7002 317.432 87.7864 319.801 94.5588C322.169 101.331 325.857 106.539 330.864 110.183C335.87 113.827 342.322 115.657 350.218 115.671C358.364 115.686 364.885 113.881 369.78 110.255C374.8 106.63 378.444 101.435 380.712 94.6716C383.106 87.908 384.312 79.8262 384.329 70.4262C384.356 56.2636 381.744 45.1667 376.495 37.1357C371.246 29.1046 362.605 25.0779 350.573 25.0557C342.552 25.0408 336.031 26.8461 331.011 30.4714C325.991 34.0968 322.284 39.2913 319.89 46.0549C317.497 52.8185 316.291 60.9003 316.273 70.3002ZM553.324 69.6111C553.296 84.6511 550.39 97.2417 544.606 107.383C538.822 117.524 530.411 125.154 519.372 130.272C508.458 135.391 495.293 137.936 479.877 137.907L441.902 137.837L442.15 3.60517L484.262 3.68313C498.299 3.70912 510.452 6.23829 520.72 11.2706C531.113 16.3032 539.121 23.7127 544.743 33.4992C550.49 43.1605 553.351 55.1978 553.324 69.6111ZM523.807 70.3085C523.825 60.4071 522.399 52.2578 519.528 45.8605C516.657 39.4632 512.342 34.7552 506.582 31.7365C500.948 28.5927 493.995 27.0132 485.723 26.9979L470.495 26.9697L470.333 114.39L482.553 114.412C496.465 114.438 506.812 110.76 513.593 103.378C520.375 95.9955 523.78 84.9724 523.807 70.3085ZM707.169 138.328L629.901 138.185L630.15 3.95323L707.418 4.09628L707.374 27.4082L658.495 27.3177L658.44 56.8337L703.936 56.9179L703.893 80.2299L658.397 80.1457L658.333 114.738L707.213 114.828L707.169 138.328ZM786.188 63.0862L839.392 63.1847L839.263 132.745C832.24 135.113 824.904 136.979 817.256 138.344C809.734 139.709 801.147 140.382 791.497 140.364C778.211 140.34 766.874 137.687 757.483 132.405C748.218 127.124 741.152 119.34 736.283 109.054C731.539 98.7678 729.181 86.1047 729.209 71.0647C729.235 57.0274 731.952 44.8751 737.36 34.6078C742.894 24.3407 750.867 16.3968 761.281 10.776C771.694 5.15529 784.42 2.35884 799.46 2.38669C806.604 2.39992 813.621 3.16491 820.512 4.68167C827.402 6.19843 833.665 8.21536 839.301 10.7325L829.859 33.463C825.727 31.3247 821.03 29.5613 815.768 28.1729C810.507 26.7845 804.994 26.085 799.228 26.0743C790.956 26.059 783.746 27.9256 777.598 31.6743C771.575 35.4231 766.865 40.7411 763.468 47.6281C760.197 54.3901 758.553 62.4084 758.536 71.683C758.52 80.4564 759.696 88.2292 762.065 95.0016C764.433 101.774 768.184 107.108 773.315 111.002C778.447 114.772 785.149 116.664 793.421 116.68C796.178 116.685 798.559 116.627 800.565 116.505C802.696 116.258 804.639 116.011 806.394 115.764C808.15 115.391 809.842 115.081 811.472 114.833L811.524 86.8212L786.144 86.7742L786.188 63.0862ZM922.23 63.3381L975.434 63.4366L975.306 132.996C968.283 135.365 960.947 137.231 953.299 138.596C945.777 139.96 937.19 140.634 927.539 140.616C914.254 140.591 902.916 137.938 893.526 132.657C884.261 127.376 877.194 119.592 872.325 109.306C867.582 99.0196 865.224 86.3566 865.252 71.3166C865.278 57.2793 867.995 45.127 873.403 34.8596C878.937 24.5925 886.91 16.6486 897.323 11.0279C907.736 5.40716 920.463 2.61071 935.503 2.63856C942.647 2.65178 949.664 3.41678 956.555 4.93354C963.445 6.4503 969.708 8.46723 975.344 10.9843L965.901 33.7149C961.769 31.5766 957.073 29.8132 951.811 28.4248C946.55 27.0364 941.036 26.3368 935.271 26.3262C926.999 26.3109 919.789 28.1775 913.641 31.9261C907.618 35.675 902.908 40.9929 899.511 47.88C896.24 54.642 894.596 62.6603 894.579 71.9349C894.562 80.7082 895.739 88.4811 898.107 95.2535C900.476 102.026 904.226 107.36 909.358 111.254C914.489 115.024 921.191 116.916 929.463 116.932C932.221 116.937 934.602 116.878 936.608 116.757C938.739 116.51 940.682 116.263 942.437 116.016C944.192 115.643 945.885 115.333 947.515 115.085L947.567 87.073L922.187 87.0261L922.23 63.3381Z"/>
</mask>
<path d="M57.689 61.7375L110.893 61.836L110.764 131.396C103.741 133.764 96.4056 135.631 88.7577 136.995C81.2352 138.36 72.6486 139.033 62.998 139.015C49.7126 138.991 38.3749 136.338 28.9846 131.056C19.7197 125.775 12.6528 117.992 7.78383 107.705C3.0402 97.419 0.682303 84.756 0.710148 69.716C0.736136 55.6787 3.45331 43.5264 8.86166 33.259C14.3953 22.9919 22.3687 15.048 32.7818 9.42728C43.1949 3.80654 55.9214 1.0101 70.9614 1.03795C78.1054 1.05117 85.1227 1.81617 92.0132 3.33293C98.9037 4.84969 105.167 6.86662 110.802 9.38373L101.36 32.1143C97.2279 29.976 92.5311 28.2126 87.2697 26.8242C82.0083 25.4358 76.4949 24.7362 70.7296 24.7256C62.4576 24.7102 55.2474 26.5769 49.0992 30.3255C43.0762 34.0744 38.3664 39.3923 34.9696 46.2794C31.6984 53.0413 30.0542 61.0596 30.0371 70.3343C30.0208 79.1076 31.1971 86.8805 33.5659 93.6529C35.9347 100.425 39.6848 105.759 44.8163 109.654C49.948 113.423 56.6498 115.316 64.9218 115.331C67.6791 115.336 70.0606 115.278 72.0661 115.156C74.1973 114.909 76.1404 114.662 77.8955 114.415C79.6509 114.042 81.3435 113.732 82.9733 113.484L83.0251 85.4724L57.6452 85.4254L57.689 61.7375ZM264.593 70.2046C264.573 80.6072 263.24 90.0674 260.592 98.5852C258.07 106.978 254.171 114.24 248.896 120.372C243.746 126.503 237.094 131.191 228.942 134.435C220.914 137.678 211.449 139.29 200.545 139.27C189.641 139.25 180.118 137.603 171.978 134.329C163.963 130.93 157.329 126.218 152.076 120.192C146.949 114.041 143.077 106.702 140.461 98.1748C137.97 89.6475 136.734 80.1825 136.753 69.7799C136.779 55.8679 139.057 43.7774 143.588 33.5085C148.245 23.2397 155.278 15.2941 164.689 9.67149C174.225 3.9238 186.325 1.06353 200.989 1.09068C215.527 1.1176 227.491 4.02242 236.88 9.80515C246.27 15.4625 253.211 23.4967 257.704 33.9077C262.322 44.1936 264.618 56.2926 264.593 70.2046ZM166.645 70.0232C166.627 79.4232 167.803 87.5094 170.172 94.2818C172.541 101.054 176.228 106.262 181.235 109.906C186.242 113.55 192.693 115.38 200.589 115.394C208.736 115.409 215.256 113.604 220.151 109.978C225.171 106.353 228.815 101.158 231.084 94.3946C233.478 87.631 234.683 79.5492 234.701 70.1492C234.727 55.9866 232.115 44.8897 226.866 36.8587C221.617 28.8276 212.977 24.8009 200.945 24.7786C192.923 24.7638 186.403 26.569 181.383 30.1944C176.363 33.8198 172.656 39.0143 170.262 45.7779C167.868 52.5414 166.662 60.6232 166.645 70.0232ZM414.221 70.4816C414.202 80.8842 412.869 90.3444 410.221 98.8622C407.699 107.255 403.8 114.517 398.524 120.649C393.374 126.78 386.723 131.468 378.57 134.712C370.543 137.955 361.077 139.567 350.173 139.547C339.269 139.527 329.747 137.88 321.606 134.606C313.591 131.207 306.957 126.495 301.705 120.469C296.577 114.319 292.706 106.979 290.089 98.4518C287.598 89.9245 286.363 80.4595 286.382 70.0569C286.408 56.1449 288.686 44.0544 293.217 33.7855C297.873 23.5168 304.907 15.5711 314.317 9.94851C323.853 4.20082 335.953 1.34055 350.617 1.3677C365.156 1.39462 377.12 4.29944 386.509 10.0822C395.899 15.7396 402.84 23.7738 407.333 34.1848C411.951 44.4707 414.247 56.5696 414.221 70.4816ZM316.273 70.3002C316.256 79.7002 317.432 87.7864 319.801 94.5588C322.169 101.331 325.857 106.539 330.864 110.183C335.87 113.827 342.322 115.657 350.218 115.671C358.364 115.686 364.885 113.881 369.78 110.255C374.8 106.63 378.444 101.435 380.712 94.6716C383.106 87.908 384.312 79.8262 384.329 70.4262C384.356 56.2636 381.744 45.1667 376.495 37.1357C371.246 29.1046 362.605 25.0779 350.573 25.0557C342.552 25.0408 336.031 26.8461 331.011 30.4714C325.991 34.0968 322.284 39.2913 319.89 46.0549C317.497 52.8185 316.291 60.9003 316.273 70.3002ZM553.324 69.6111C553.296 84.6511 550.39 97.2417 544.606 107.383C538.822 117.524 530.411 125.154 519.372 130.272C508.458 135.391 495.293 137.936 479.877 137.907L441.902 137.837L442.15 3.60517L484.262 3.68313C498.299 3.70912 510.452 6.23829 520.72 11.2706C531.113 16.3032 539.121 23.7127 544.743 33.4992C550.49 43.1605 553.351 55.1978 553.324 69.6111ZM523.807 70.3085C523.825 60.4071 522.399 52.2578 519.528 45.8605C516.657 39.4632 512.342 34.7552 506.582 31.7365C500.948 28.5927 493.995 27.0132 485.723 26.9979L470.495 26.9697L470.333 114.39L482.553 114.412C496.465 114.438 506.812 110.76 513.593 103.378C520.375 95.9955 523.78 84.9724 523.807 70.3085ZM707.169 138.328L629.901 138.185L630.15 3.95323L707.418 4.09628L707.374 27.4082L658.495 27.3177L658.44 56.8337L703.936 56.9179L703.893 80.2299L658.397 80.1457L658.333 114.738L707.213 114.828L707.169 138.328ZM786.188 63.0862L839.392 63.1847L839.263 132.745C832.24 135.113 824.904 136.979 817.256 138.344C809.734 139.709 801.147 140.382 791.497 140.364C778.211 140.34 766.874 137.687 757.483 132.405C748.218 127.124 741.152 119.34 736.283 109.054C731.539 98.7678 729.181 86.1047 729.209 71.0647C729.235 57.0274 731.952 44.8751 737.36 34.6078C742.894 24.3407 750.867 16.3968 761.281 10.776C771.694 5.15529 784.42 2.35884 799.46 2.38669C806.604 2.39992 813.621 3.16491 820.512 4.68167C827.402 6.19843 833.665 8.21536 839.301 10.7325L829.859 33.463C825.727 31.3247 821.03 29.5613 815.768 28.1729C810.507 26.7845 804.994 26.085 799.228 26.0743C790.956 26.059 783.746 27.9256 777.598 31.6743C771.575 35.4231 766.865 40.7411 763.468 47.6281C760.197 54.3901 758.553 62.4084 758.536 71.683C758.52 80.4564 759.696 88.2292 762.065 95.0016C764.433 101.774 768.184 107.108 773.315 111.002C778.447 114.772 785.149 116.664 793.421 116.68C796.178 116.685 798.559 116.627 800.565 116.505C802.696 116.258 804.639 116.011 806.394 115.764C808.15 115.391 809.842 115.081 811.472 114.833L811.524 86.8212L786.144 86.7742L786.188 63.0862ZM922.23 63.3381L975.434 63.4366L975.306 132.996C968.283 135.365 960.947 137.231 953.299 138.596C945.777 139.96 937.19 140.634 927.539 140.616C914.254 140.591 902.916 137.938 893.526 132.657C884.261 127.376 877.194 119.592 872.325 109.306C867.582 99.0196 865.224 86.3566 865.252 71.3166C865.278 57.2793 867.995 45.127 873.403 34.8596C878.937 24.5925 886.91 16.6486 897.323 11.0279C907.736 5.40716 920.463 2.61071 935.503 2.63856C942.647 2.65178 949.664 3.41678 956.555 4.93354C963.445 6.4503 969.708 8.46723 975.344 10.9843L965.901 33.7149C961.769 31.5766 957.073 29.8132 951.811 28.4248C946.55 27.0364 941.036 26.3368 935.271 26.3262C926.999 26.3109 919.789 28.1775 913.641 31.9261C907.618 35.675 902.908 40.9929 899.511 47.88C896.24 54.642 894.596 62.6603 894.579 71.9349C894.562 80.7082 895.739 88.4811 898.107 95.2535C900.476 102.026 904.226 107.36 909.358 111.254C914.489 115.024 921.191 116.916 929.463 116.932C932.221 116.937 934.602 116.878 936.608 116.757C938.739 116.51 940.682 116.263 942.437 116.016C944.192 115.643 945.885 115.333 947.515 115.085L947.567 87.073L922.187 87.0261L922.23 63.3381Z" fill="#B8860B"/>
<path d="M57.689 61.7375L57.7168 46.7375L42.7168 46.7097L42.689 61.7097L57.689 61.7375ZM110.893 61.836L125.893 61.8638L125.921 46.8638L110.921 46.836L110.893 61.836ZM110.764 131.396L115.557 145.609L125.744 142.174L125.764 131.424L110.764 131.396ZM88.7577 136.995L86.1231 122.228L86.1016 122.232L86.0801 122.236L88.7577 136.995ZM28.9846 131.056L21.5564 144.088L21.5938 144.109L21.6314 144.13L28.9846 131.056ZM7.78383 107.705L-5.83749 113.987L-5.8061 114.055L-5.77404 114.123L7.78383 107.705ZM8.86166 33.259L-4.34259 26.1423L-4.37646 26.2051L-4.40972 26.2683L8.86166 33.259ZM32.7818 9.42728L25.6569 -3.77254L32.7818 9.42728ZM92.0132 3.33293L88.7886 17.9822L88.7886 17.9822L92.0132 3.33293ZM110.802 9.38373L124.654 15.1379L130.259 1.64608L116.919 -4.31214L110.802 9.38373ZM101.36 32.1143L94.4659 45.4362L108.954 52.9339L115.212 37.8685L101.36 32.1143ZM87.2697 26.8242L83.4424 41.3277L83.4425 41.3277L87.2697 26.8242ZM49.0992 30.3255L41.2905 17.5183L41.2315 17.5543L41.1727 17.5908L49.0992 30.3255ZM34.9696 46.2794L21.5168 39.6444L21.4915 39.6957L21.4666 39.7471L34.9696 46.2794ZM33.5659 93.6529L19.407 98.6053L19.407 98.6053L33.5659 93.6529ZM44.8163 109.654L35.7475 121.602L35.8413 121.673L35.9362 121.743L44.8163 109.654ZM72.0661 115.156L72.9741 130.129L73.3836 130.104L73.7912 130.057L72.0661 115.156ZM77.8955 114.415L79.9894 129.268L80.5034 129.196L81.0113 129.088L77.8955 114.415ZM82.9733 113.484L85.2267 128.314L97.9494 126.381L97.9732 113.512L82.9733 113.484ZM83.0251 85.4724L98.0251 85.5002L98.0529 70.5002L83.0529 70.4725L83.0251 85.4724ZM57.6452 85.4254L42.6452 85.3977L42.6174 100.398L57.6174 100.425L57.6452 85.4254ZM57.6613 76.7375L110.865 76.836L110.921 46.836L57.7168 46.7375L57.6613 76.7375ZM95.893 61.8082L95.7642 131.368L125.764 131.424L125.893 61.8638L95.893 61.8082ZM105.971 117.182C99.6856 119.302 93.0737 120.988 86.1231 122.228L91.3924 151.762C99.7375 150.273 107.797 148.227 115.557 145.609L105.971 117.182ZM86.0801 122.236C79.6464 123.403 71.9931 124.032 63.0257 124.015L62.9702 154.015C73.3041 154.035 82.824 153.316 91.4353 151.754L86.0801 122.236ZM63.0257 124.015C51.7146 123.995 43.0263 121.744 36.3379 117.982L21.6314 144.13C33.7235 150.931 47.7107 153.987 62.9702 154.015L63.0257 124.015ZM36.4129 118.025C30.0047 114.372 24.9875 108.99 21.3417 101.288L-5.77404 114.123C0.318048 126.993 9.43479 137.178 21.5564 144.088L36.4129 118.025ZM21.4051 101.423C17.8211 93.6518 15.6851 83.2856 15.7101 69.7438L-14.2898 69.6882C-14.3204 86.2264 -11.7407 101.186 -5.83749 113.987L21.4051 101.423ZM15.7101 69.7438C15.7326 57.6291 18.0692 47.9646 22.133 40.2498L-4.40972 26.2683C-11.1626 39.0881 -14.2603 53.7282 -14.2898 69.6882L15.7101 69.7438ZM22.0659 40.3758C26.189 32.7259 32.0305 26.8785 39.9068 22.6271L25.6569 -3.77254C12.7069 3.21753 2.6017 13.258 -4.34259 26.1423L22.0659 40.3758ZM39.9068 22.6271C47.6061 18.4712 57.7291 16.0135 70.9337 16.0379L70.9892 -13.962C54.1138 -13.9933 38.7838 -10.8581 25.6569 -3.77254L39.9068 22.6271ZM70.9337 16.0379C77.0161 16.0492 82.9612 16.6995 88.7886 17.9822L95.2379 -11.3164C87.2842 -13.0671 79.1947 -13.9468 70.9892 -13.962L70.9337 16.0379ZM88.7886 17.9822C94.8233 19.3106 100.1 21.0317 104.685 23.0796L116.919 -4.31214C110.234 -7.29842 102.984 -9.61122 95.2378 -11.3164L88.7886 17.9822ZM96.9496 3.62954L87.5075 26.3601L115.212 37.8685L124.654 15.1379L96.9496 3.62954ZM108.254 18.7924C102.998 16.0725 97.2467 13.9435 91.0969 12.3207L83.4425 41.3277C87.8156 42.4817 91.4577 43.8794 94.4659 45.4362L108.254 18.7924ZM91.097 12.3207C84.524 10.5862 77.7291 9.73849 70.7573 9.72558L70.7018 39.7255C75.2607 39.734 79.4926 40.2854 83.4424 41.3277L91.097 12.3207ZM70.7573 9.72558C60.1404 9.70592 50.1331 12.127 41.2905 17.5183L56.9078 43.1328C60.3618 41.0268 64.7748 39.7146 70.7018 39.7255L70.7573 9.72558ZM41.1727 17.5908C32.5795 22.9395 26.045 30.4634 21.5168 39.6444L48.4224 52.9144C50.6877 48.3213 53.5729 45.2092 57.0256 43.0602L41.1727 17.5908ZM21.4666 39.7471C17.0115 48.9566 15.0575 59.2962 15.0371 70.3065L45.037 70.3621C45.051 62.8231 46.3854 57.1261 48.4726 52.8116L21.4666 39.7471ZM15.0371 70.3065C15.0184 80.4108 16.3695 89.9209 19.407 98.6053L47.7248 88.7005C46.0247 83.8401 45.0233 77.8044 45.037 70.3621L15.0371 70.3065ZM19.407 98.6053C22.6339 107.831 28.0068 115.727 35.7475 121.602L53.885 97.7056C51.3628 95.7912 49.2355 93.0197 47.7248 88.7005L19.407 98.6053ZM35.9362 121.743C44.3083 127.892 54.3889 130.311 64.894 130.331L64.9496 100.331C58.9107 100.32 55.5877 98.954 53.6963 97.5647L35.9362 121.743ZM64.894 130.331C67.8578 130.336 70.5668 130.275 72.9741 130.129L71.1582 100.184C69.5544 100.281 67.5005 100.336 64.9496 100.331L64.894 130.331ZM73.7912 130.057C76.0209 129.799 78.0892 129.536 79.9894 129.268L75.8017 99.5618C74.1916 99.7888 72.3737 100.02 70.3411 100.256L73.7912 130.057ZM81.0113 129.088C82.5056 128.771 83.9098 128.514 85.2267 128.314L80.7199 98.6546C78.7771 98.9498 76.7962 99.314 74.7797 99.7422L81.0113 129.088ZM97.9732 113.512L98.0251 85.5002L68.0251 85.4447L67.9733 113.457L97.9732 113.512ZM83.0529 70.4725L57.6729 70.4255L57.6174 100.425L82.9973 100.472L83.0529 70.4725ZM72.6451 85.4532L72.689 61.7653L42.689 61.7097L42.6452 85.3977L72.6451 85.4532ZM260.592 98.5852L246.268 94.1326L246.247 94.2002L246.227 94.2681L260.592 98.5852ZM248.896 120.372L237.525 110.589L237.467 110.656L237.41 110.724L248.896 120.372ZM228.942 134.435L223.397 120.497L223.359 120.512L223.322 120.527L228.942 134.435ZM171.978 134.329L166.122 148.139L166.251 148.194L166.381 148.246L171.978 134.329ZM152.076 120.192L140.554 129.797L140.66 129.924L140.769 130.049L152.076 120.192ZM140.461 98.1748L126.062 102.381L126.091 102.478L126.12 102.574L140.461 98.1748ZM143.588 33.5085L129.927 27.3138L129.896 27.3833L129.865 27.4532L143.588 33.5085ZM164.689 9.67149L172.382 22.5481L172.407 22.5333L172.432 22.5183L164.689 9.67149ZM236.88 9.80515L229.014 22.5772L229.077 22.6155L229.139 22.6532L236.88 9.80515ZM257.704 33.9077L243.932 39.851L243.975 39.9517L244.02 40.0518L257.704 33.9077ZM181.235 109.906L190.062 97.7785L190.062 97.7785L181.235 109.906ZM220.151 109.978L211.369 97.8179L211.296 97.8709L211.223 97.9249L220.151 109.978ZM231.084 94.3946L216.943 89.3898L216.902 89.507L216.862 89.6248L231.084 94.3946ZM226.866 36.8587L214.31 45.0653L214.31 45.0653L226.866 36.8587ZM181.383 30.1944L172.601 18.034L172.601 18.034L181.383 30.1944ZM170.262 45.7779L156.121 40.7731L170.262 45.7779ZM249.593 70.1768C249.576 79.3222 248.404 87.2627 246.268 94.1326L274.916 103.038C278.076 92.8721 279.571 81.8922 279.593 70.2323L249.593 70.1768ZM246.227 94.2681C244.258 100.819 241.319 106.178 237.525 110.589L260.267 130.155C267.023 122.302 271.882 113.137 274.957 102.902L246.227 94.2681ZM237.41 110.724C234.004 114.779 229.47 118.081 223.397 120.497L234.487 148.372C244.719 144.301 253.488 138.227 260.382 130.019L237.41 110.724ZM223.322 120.527C217.488 122.885 210.024 124.288 200.572 124.27L200.517 154.27C212.873 154.293 224.34 152.472 234.562 148.342L223.322 120.527ZM200.572 124.27C191.129 124.253 183.572 122.824 177.574 120.412L166.381 148.246C176.665 152.382 188.152 154.247 200.517 154.27L200.572 124.27ZM177.834 120.52C171.722 117.928 167.012 114.499 163.383 110.336L140.769 130.049C147.645 137.937 156.203 143.933 166.122 148.139L177.834 120.52ZM163.598 110.588C159.884 106.133 156.899 100.615 154.801 93.7752L126.12 102.574C129.254 112.79 134.013 121.95 140.554 129.797L163.598 110.588ZM154.859 93.9689C152.832 87.0282 151.736 79.0158 151.753 69.8076L121.753 69.7521C121.732 81.3493 123.108 92.2668 126.062 102.381L154.859 93.9689ZM151.753 69.8076C151.776 57.4886 153.794 47.5365 157.312 39.5637L129.865 27.4532C124.321 40.0184 121.782 54.2472 121.753 69.7521L151.753 69.8076ZM157.25 39.7031C160.682 32.133 165.674 26.5563 172.382 22.5481L156.995 -3.20517C144.882 4.03186 135.807 14.3465 129.927 27.3138L157.25 39.7031ZM172.432 22.5183C178.99 18.5652 188.189 16.067 200.961 16.0907L201.016 -13.9093C184.46 -13.9399 169.459 -10.7176 156.945 -3.17537L172.432 22.5183ZM200.961 16.0907C213.591 16.114 222.621 18.6393 229.014 22.5772L244.747 -2.96688C232.362 -10.5945 217.463 -13.8788 201.016 -13.9093L200.961 16.0907ZM229.139 22.6532C235.75 26.6365 240.634 32.2092 243.932 39.851L271.476 27.9645C265.788 14.7843 256.79 4.28853 244.622 -3.04294L229.139 22.6532ZM244.02 40.0518C247.588 47.9987 249.615 57.9073 249.593 70.1768L279.593 70.2323C279.621 54.6779 277.056 40.3886 271.388 27.7637L244.02 40.0518ZM151.645 69.9954C151.625 80.5947 152.941 90.4516 156.013 99.2342L184.331 89.3294C182.665 84.5672 181.63 78.2517 181.645 70.051L151.645 69.9954ZM156.013 99.2342C159.224 108.414 164.562 116.323 172.408 122.034L190.062 97.7785C187.895 96.2012 185.857 93.694 184.331 89.3294L156.013 99.2342ZM172.408 122.034C180.598 127.995 190.377 130.375 200.561 130.394L200.617 100.394C195.009 100.384 191.886 99.1057 190.062 97.7785L172.408 122.034ZM200.561 130.394C210.854 130.413 220.844 128.132 229.079 122.032L211.223 97.9249C209.669 99.0758 206.617 100.405 200.617 100.394L200.561 130.394ZM228.933 122.139C236.867 116.409 242.197 108.431 245.305 99.1643L216.862 89.6248C215.433 93.8854 213.475 96.2967 211.369 97.8179L228.933 122.139ZM245.224 99.3994C248.329 90.6282 249.681 80.7763 249.701 70.177L219.701 70.1214C219.686 78.3221 218.627 84.6337 216.943 89.3898L245.224 99.3994ZM249.701 70.177C249.73 54.4025 246.864 40.037 239.422 28.652L214.31 45.0653C217.367 49.7424 219.724 57.5706 219.701 70.1214L249.701 70.177ZM239.422 28.652C230.695 15.3001 216.6 9.8076 200.972 9.77866L200.917 39.7786C209.353 39.7942 212.539 42.355 214.31 45.0653L239.422 28.652ZM200.972 9.77866C190.722 9.75969 180.85 12.0767 172.601 18.034L190.165 42.3549C191.956 41.0614 195.125 39.7679 200.917 39.7786L200.972 9.77866ZM172.601 18.034C164.733 23.7156 159.366 31.6048 156.121 40.7731L184.402 50.7827C185.945 46.4238 187.992 43.9241 190.165 42.3549L172.601 18.034ZM156.121 40.7731C153.017 49.5442 151.664 59.3961 151.645 69.9954L181.645 70.051C181.66 61.8503 182.719 55.5387 184.402 50.7827L156.121 40.7731ZM410.221 98.8622L395.897 94.4096L395.876 94.4772L395.855 94.5451L410.221 98.8622ZM398.524 120.649L387.154 110.866L387.096 110.933L387.038 111.001L398.524 120.649ZM378.57 134.712L373.025 120.774L372.988 120.789L372.95 120.804L378.57 134.712ZM321.606 134.606L315.75 148.416L315.88 148.471L316.01 148.523L321.606 134.606ZM301.705 120.469L290.183 130.074L290.289 130.201L290.398 130.326L301.705 120.469ZM290.089 98.4518L275.691 102.658L275.719 102.755L275.749 102.851L290.089 98.4518ZM293.217 33.7855L279.556 27.5908L279.524 27.6604L279.494 27.7302L293.217 33.7855ZM314.317 9.94851L322.011 22.8252L322.036 22.8103L322.06 22.7954L314.317 9.94851ZM386.509 10.0822L378.643 22.8542L378.705 22.8925L378.768 22.9303L386.509 10.0822ZM407.333 34.1848L393.56 40.128L393.604 40.2287L393.649 40.3288L407.333 34.1848ZM330.864 110.183L339.691 98.0555L339.691 98.0555L330.864 110.183ZM369.78 110.255L360.998 98.0949L360.924 98.148L360.851 98.2019L369.78 110.255ZM380.712 94.6716L366.572 89.6668L366.531 89.784L366.491 89.9018L380.712 94.6716ZM376.495 37.1357L363.939 45.3423L363.939 45.3423L376.495 37.1357ZM331.011 30.4714L322.229 18.311L322.229 18.311L331.011 30.4714ZM319.89 46.0549L305.75 41.0501L319.89 46.0549ZM399.221 70.4538C399.204 79.5992 398.032 87.5397 395.897 94.4096L424.545 103.315C427.705 93.1492 429.2 82.1693 429.221 70.5094L399.221 70.4538ZM395.855 94.5451C393.887 101.096 390.948 106.455 387.154 110.866L409.895 130.432C416.652 122.579 421.51 113.414 424.586 103.179L395.855 94.5451ZM387.038 111.001C383.633 115.056 379.099 118.358 373.025 120.774L384.115 148.649C394.347 144.578 403.116 138.504 410.011 130.296L387.038 111.001ZM372.95 120.804C367.117 123.162 359.653 124.565 350.201 124.547L350.146 154.547C362.502 154.57 373.969 152.749 384.19 148.619L372.95 120.804ZM350.201 124.547C340.758 124.53 333.201 123.101 327.203 120.689L316.01 148.523C326.293 152.659 337.781 154.524 350.146 154.547L350.201 124.547ZM327.463 120.797C321.351 118.205 316.641 114.776 313.011 110.613L290.398 130.326C297.274 138.214 305.832 144.21 315.75 148.416L327.463 120.797ZM313.226 110.865C309.513 106.41 306.528 100.892 304.43 94.0523L275.749 102.851C278.883 113.067 283.642 122.227 290.183 130.074L313.226 110.865ZM304.488 94.246C302.46 87.3052 301.365 79.2928 301.382 70.0847L271.382 70.0291C271.36 81.6263 272.737 92.5438 275.691 102.658L304.488 94.246ZM301.382 70.0847C301.405 57.7656 303.423 47.8135 306.941 39.8408L279.494 27.7302C273.949 40.2954 271.411 54.5242 271.382 70.0291L301.382 70.0847ZM306.878 39.9801C310.311 32.41 315.302 26.8333 322.011 22.8252L306.624 -2.92815C294.511 4.30888 285.436 14.6235 279.556 27.5908L306.878 39.9801ZM322.06 22.7954C328.619 18.8423 337.817 16.344 350.589 16.3677L350.645 -13.6323C334.089 -13.6629 319.087 -10.4406 306.574 -2.89835L322.06 22.7954ZM350.589 16.3677C363.22 16.3911 372.249 18.9163 378.643 22.8542L394.375 -2.68986C381.99 -10.3175 367.092 -13.6018 350.645 -13.6323L350.589 16.3677ZM378.768 22.9303C385.379 26.9136 390.262 32.4862 393.56 40.128L421.105 28.2415C415.417 15.0613 406.418 4.56556 394.25 -2.76591L378.768 22.9303ZM393.649 40.3288C397.217 48.2757 399.244 58.1843 399.221 70.4538L429.221 70.5094C429.25 54.9549 426.685 40.6656 421.016 28.0408L393.649 40.3288ZM301.274 70.2725C301.254 80.8718 302.57 90.7286 305.642 99.5112L333.959 89.6064C332.294 84.8442 331.258 78.5287 331.273 70.328L301.274 70.2725ZM305.642 99.5112C308.853 108.691 314.191 116.6 322.037 122.311L339.691 98.0555C337.524 96.4783 335.486 93.971 333.959 89.6064L305.642 99.5112ZM322.037 122.311C330.226 128.272 340.005 130.652 350.19 130.671L350.245 100.671C344.638 100.661 341.514 99.3827 339.691 98.0555L322.037 122.311ZM350.19 130.671C360.483 130.69 370.472 128.409 378.708 122.309L360.851 98.2019C359.298 99.3528 356.246 100.682 350.245 100.671L350.19 130.671ZM378.562 122.416C386.495 116.686 391.826 108.708 394.934 99.4413L366.491 89.9018C365.062 94.1624 363.104 96.5737 360.998 98.0949L378.562 122.416ZM394.853 99.6764C397.957 90.9053 399.31 81.0533 399.329 70.454L369.329 70.3985C369.314 78.5991 368.255 84.9108 366.572 89.6668L394.853 99.6764ZM399.329 70.454C399.359 54.6795 396.492 40.3141 389.051 28.9291L363.939 45.3423C366.996 50.0194 369.353 57.8477 369.329 70.3985L399.329 70.454ZM389.051 28.9291C380.324 15.5771 366.229 10.0846 350.601 10.0557L350.546 40.0556C358.982 40.0713 362.168 42.6321 363.939 45.3423L389.051 28.9291ZM350.601 10.0557C340.35 10.0367 330.478 12.3537 322.229 18.311L339.793 42.6319C341.584 41.3384 344.753 40.0449 350.546 40.0556L350.601 10.0557ZM322.229 18.311C314.362 23.9926 308.995 31.8818 305.75 41.0501L334.031 51.0597C335.574 46.7008 337.62 44.2011 339.793 42.6319L322.229 18.311ZM305.75 41.0501C302.646 49.8212 301.293 59.6732 301.274 70.2725L331.273 70.328C331.289 62.1273 332.347 55.8157 334.031 51.0597L305.75 41.0501ZM544.606 107.383L557.636 114.815L557.636 114.815L544.606 107.383ZM519.372 130.272L513.062 116.664L513.032 116.678L513.002 116.692L519.372 130.272ZM441.902 137.837L426.902 137.809L426.874 152.809L441.874 152.837L441.902 137.837ZM442.15 3.60517L442.178 -11.3948L427.178 -11.4226L427.15 3.5774L442.15 3.60517ZM520.72 11.2706L514.119 24.74L514.151 24.7557L514.183 24.7712L520.72 11.2706ZM544.743 33.4992L531.736 40.9709L531.793 41.07L531.852 41.1681L544.743 33.4992ZM519.528 45.8605L533.213 39.7192L519.528 45.8605ZM506.582 31.7365L499.273 44.8354L499.445 44.9312L499.619 45.0224L506.582 31.7365ZM470.495 26.9697L470.523 11.9697L455.523 11.9419L455.495 26.9419L470.495 26.9697ZM470.333 114.39L455.333 114.362L455.305 129.362L470.305 129.39L470.333 114.39ZM513.593 103.378L502.547 93.2298L502.547 93.2298L513.593 103.378ZM538.324 69.5833C538.3 82.7577 535.755 92.6259 531.576 99.9515L557.636 114.815C565.026 101.858 568.293 86.5445 568.324 69.6389L538.324 69.5833ZM531.576 99.9515C527.404 107.267 521.401 112.798 513.062 116.664L525.681 143.881C539.42 137.511 550.24 127.782 557.636 114.815L531.576 99.9515ZM513.002 116.692C504.568 120.648 493.706 122.933 479.905 122.907L479.85 152.907C496.881 152.939 512.349 150.134 525.741 143.853L513.002 116.692ZM479.905 122.907L441.929 122.837L441.874 152.837L479.85 152.907L479.905 122.907ZM456.902 137.865L457.15 3.63294L427.15 3.5774L426.902 137.809L456.902 137.865ZM442.122 18.6051L484.234 18.6831L484.29 -11.3168L442.178 -11.3948L442.122 18.6051ZM484.234 18.6831C496.501 18.7058 506.31 20.9127 514.119 24.74L527.321 -2.19868C514.594 -8.43615 500.097 -11.2876 484.29 -11.3168L484.234 18.6831ZM514.183 24.7712C521.93 28.5224 527.653 33.8623 531.736 40.9709L557.75 26.0274C550.589 13.5632 540.297 4.08408 527.257 -2.22994L514.183 24.7712ZM531.852 41.1681C535.875 47.931 538.347 57.1278 538.324 69.5833L568.324 69.6389C568.354 53.2678 565.106 38.39 557.634 25.8302L531.852 41.1681ZM538.807 70.3362C538.827 59.1238 537.236 48.6832 533.213 39.7192L505.843 52.0018C507.562 55.8325 508.823 61.6904 508.807 70.2807L538.807 70.3362ZM533.213 39.7192C529.081 30.5106 522.523 23.1557 513.545 18.4506L499.619 45.0224C502.161 46.3546 504.234 48.4157 505.843 52.0018L533.213 39.7192ZM513.891 18.6377C505.489 13.9494 495.869 12.0166 485.751 11.9979L485.695 41.9979C492.12 42.0097 496.407 43.2361 499.273 44.8354L513.891 18.6377ZM485.751 11.9979L470.523 11.9697L470.467 41.9697L485.695 41.9979L485.751 11.9979ZM455.495 26.9419L455.333 114.362L485.333 114.417L485.495 26.9975L455.495 26.9419ZM470.305 129.39L482.525 129.412L482.581 99.4122L470.361 99.3896L470.305 129.39ZM482.525 129.412C498.96 129.443 514.042 125.062 524.64 113.525L502.547 93.2298C499.582 96.4576 493.97 99.4333 482.581 99.4122L482.525 129.412ZM524.64 113.525C534.916 102.34 538.776 87.0399 538.807 70.3362L508.807 70.2807C508.783 82.905 505.835 89.6511 502.547 93.2298L524.64 113.525ZM707.169 138.328L707.141 153.328L722.141 153.356L722.169 138.356L707.169 138.328ZM629.901 138.185L614.901 138.157L614.873 153.157L629.873 153.185L629.901 138.185ZM630.15 3.95323L630.178 -11.0467L615.178 -11.0745L615.15 3.92546L630.15 3.95323ZM707.418 4.09628L722.418 4.12405L722.445 -10.8759L707.445 -10.9037L707.418 4.09628ZM707.374 27.4082L707.347 42.4082L722.347 42.436L722.374 27.436L707.374 27.4082ZM658.495 27.3177L658.522 12.3178L643.522 12.29L643.495 27.29L658.495 27.3177ZM658.44 56.8337L643.44 56.8059L643.412 71.8059L658.412 71.8337L658.44 56.8337ZM703.936 56.9179L718.936 56.9457L718.964 41.9457L703.964 41.918L703.936 56.9179ZM703.893 80.2299L703.865 95.2299L718.865 95.2576L718.893 80.2577L703.893 80.2299ZM658.397 80.1457L658.425 65.1457L643.425 65.1179L643.397 80.1179L658.397 80.1457ZM658.333 114.738L643.333 114.71L643.305 129.71L658.305 129.738L658.333 114.738ZM707.213 114.828L722.213 114.856L722.24 99.8559L707.24 99.8281L707.213 114.828ZM707.197 123.328L629.929 123.185L629.873 153.185L707.141 153.328L707.197 123.328ZM644.901 138.213L645.15 3.981L615.15 3.92546L614.901 138.157L644.901 138.213ZM630.122 18.9532L707.39 19.0963L707.445 -10.9037L630.178 -11.0467L630.122 18.9532ZM692.418 4.06851L692.374 27.3805L722.374 27.436L722.418 4.12405L692.418 4.06851ZM707.402 12.4083L658.522 12.3178L658.467 42.3177L707.347 42.4082L707.402 12.4083ZM643.495 27.29L643.44 56.8059L673.44 56.8615L673.495 27.3455L643.495 27.29ZM658.412 71.8337L703.908 71.9179L703.964 41.918L658.468 41.8337L658.412 71.8337ZM688.936 56.8902L688.893 80.2021L718.893 80.2577L718.936 56.9457L688.936 56.8902ZM703.92 65.2299L658.425 65.1457L658.369 95.1456L703.865 95.2299L703.92 65.2299ZM643.397 80.1179L643.333 114.71L673.333 114.765L673.397 80.1734L643.397 80.1179ZM658.305 129.738L707.185 129.828L707.24 99.8281L658.36 99.7376L658.305 129.738ZM692.213 114.8L692.169 138.3L722.169 138.356L722.213 114.856L692.213 114.8ZM786.188 63.0862L786.216 48.0862L771.216 48.0585L771.188 63.0585L786.188 63.0862ZM839.392 63.1847L854.392 63.2125L854.419 48.2125L839.419 48.1847L839.392 63.1847ZM839.263 132.745L844.056 146.958L854.243 143.523L854.263 132.772L839.263 132.745ZM817.256 138.344L814.622 123.577L814.6 123.581L814.579 123.585L817.256 138.344ZM757.483 132.405L750.055 145.437L750.093 145.458L750.13 145.479L757.483 132.405ZM736.283 109.054L722.661 115.336L722.693 115.404L722.725 115.471L736.283 109.054ZM737.36 34.6078L724.156 27.491L724.122 27.5539L724.089 27.617L737.36 34.6078ZM761.281 10.776L754.156 -2.4238L761.281 10.776ZM820.512 4.68167L817.287 19.331L817.287 19.331L820.512 4.68167ZM839.301 10.7325L853.153 16.4867L858.758 2.99482L845.418 -2.96339L839.301 10.7325ZM829.859 33.463L822.965 46.7849L837.453 54.2826L843.711 39.2172L829.859 33.463ZM815.768 28.1729L811.941 42.6764L811.941 42.6765L815.768 28.1729ZM777.598 31.6743L769.789 18.867L769.73 18.903L769.671 18.9396L777.598 31.6743ZM763.468 47.6281L750.016 40.9931L749.99 41.0444L749.965 41.0959L763.468 47.6281ZM762.065 95.0016L747.906 99.954L747.906 99.954L762.065 95.0016ZM773.315 111.002L764.246 122.951L764.34 123.022L764.435 123.092L773.315 111.002ZM800.565 116.505L801.473 131.477L801.882 131.453L802.29 131.405L800.565 116.505ZM806.394 115.764L808.488 130.617L809.002 130.544L809.51 130.437L806.394 115.764ZM811.472 114.833L813.725 129.663L826.448 127.73L826.472 114.861L811.472 114.833ZM811.524 86.8212L826.524 86.8489L826.552 71.849L811.552 71.8212L811.524 86.8212ZM786.144 86.7742L771.144 86.7464L771.116 101.746L786.116 101.774L786.144 86.7742ZM786.16 78.0862L839.364 78.1847L839.419 48.1847L786.216 48.0862L786.16 78.0862ZM824.392 63.157L824.263 132.717L854.263 132.772L854.392 63.2125L824.392 63.157ZM834.47 118.531C828.184 120.651 821.572 122.337 814.622 123.577L819.891 153.111C828.236 151.622 836.295 149.575 844.056 146.958L834.47 118.531ZM814.579 123.585C808.145 124.752 800.492 125.381 791.524 125.364L791.469 155.364C801.803 155.383 811.323 154.665 819.934 153.103L814.579 123.585ZM791.524 125.364C780.213 125.343 771.525 123.093 764.837 119.331L750.13 145.479C762.222 152.28 776.209 155.336 791.469 155.364L791.524 125.364ZM764.912 119.374C758.503 115.721 753.486 110.339 749.84 102.636L722.725 115.471C728.817 128.342 737.934 138.527 750.055 145.437L764.912 119.374ZM749.904 102.772C746.32 95.0006 744.184 84.6343 744.209 71.0925L714.209 71.037C714.178 87.5751 716.758 102.535 722.661 115.336L749.904 102.772ZM744.209 71.0925C744.231 58.9779 746.568 49.3133 750.632 41.5985L724.089 27.617C717.336 40.4369 714.238 55.077 714.209 71.037L744.209 71.0925ZM750.565 41.7245C754.688 34.0746 760.529 28.2272 768.406 23.9758L754.156 -2.4238C741.206 4.56627 731.1 14.6067 724.156 27.491L750.565 41.7245ZM768.406 23.9758C776.105 19.8199 786.228 17.3622 799.432 17.3867L799.488 -12.6133C782.613 -12.6445 767.283 -9.50937 754.156 -2.4238L768.406 23.9758ZM799.432 17.3867C805.515 17.3979 811.46 18.0482 817.287 19.331L823.737 -9.96762C815.783 -11.7184 807.693 -12.5981 799.488 -12.6133L799.432 17.3867ZM817.287 19.331C823.322 20.6593 828.598 22.3804 833.183 24.4283L845.418 -2.96339C838.733 -5.94967 831.483 -8.26248 823.737 -9.96762L817.287 19.331ZM825.448 4.97829L816.006 27.7088L843.711 39.2172L853.153 16.4867L825.448 4.97829ZM836.753 20.1411C831.497 17.4213 825.745 15.2922 819.596 13.6694L811.941 42.6765C816.314 43.8305 819.956 45.2282 822.965 46.7849L836.753 20.1411ZM819.596 13.6694C813.023 11.9349 806.228 11.0872 799.256 11.0743L799.201 41.0743C803.759 41.0827 807.991 41.6341 811.941 42.6764L819.596 13.6694ZM799.256 11.0743C788.639 11.0547 778.632 13.4757 769.789 18.867L785.407 44.4815C788.861 42.3756 793.274 41.0633 799.201 41.0743L799.256 11.0743ZM769.671 18.9396C761.078 24.2883 754.544 31.8121 750.016 40.9931L776.921 54.2631C779.186 49.67 782.072 46.558 785.524 44.4089L769.671 18.9396ZM749.965 41.0959C745.51 50.3053 743.556 60.6449 743.536 71.6553L773.536 71.7108C773.55 64.1719 774.884 58.4749 776.971 54.1604L749.965 41.0959ZM743.536 71.6553C743.517 81.7595 744.868 91.2696 747.906 99.954L776.224 90.0492C774.523 85.1888 773.522 79.1532 773.536 71.7108L743.536 71.6553ZM747.906 99.954C751.133 109.18 756.506 117.075 764.246 122.951L782.384 99.0544C779.862 97.14 777.734 94.3684 776.224 90.0492L747.906 99.954ZM764.435 123.092C772.807 129.241 782.888 131.66 793.393 131.68L793.448 101.68C787.409 101.669 784.086 100.303 782.195 98.9134L764.435 123.092ZM793.393 131.68C796.356 131.685 799.066 131.623 801.473 131.477L799.657 101.532C798.053 101.63 795.999 101.684 793.448 101.68L793.393 131.68ZM802.29 131.405C804.52 131.147 806.588 130.885 808.488 130.617L804.3 100.911C802.69 101.138 800.872 101.369 798.84 101.604L802.29 131.405ZM809.51 130.437C811.004 130.119 812.409 129.863 813.725 129.663L809.219 100.003C807.276 100.299 805.295 100.663 803.278 101.091L809.51 130.437ZM826.472 114.861L826.524 86.8489L796.524 86.7934L796.472 114.805L826.472 114.861ZM811.552 71.8212L786.172 71.7742L786.116 101.774L811.496 101.821L811.552 71.8212ZM801.144 86.802L801.188 63.114L771.188 63.0585L771.144 86.7464L801.144 86.802ZM922.23 63.3381L922.258 48.3381L907.258 48.3103L907.231 63.3103L922.23 63.3381ZM975.434 63.4366L990.434 63.4644L990.462 48.4644L975.462 48.4366L975.434 63.4366ZM975.306 132.996L980.099 147.21L990.286 143.775L990.306 133.024L975.306 132.996ZM953.299 138.596L950.665 123.829L950.643 123.833L950.622 123.837L953.299 138.596ZM893.526 132.657L886.098 145.689L886.135 145.71L886.173 145.731L893.526 132.657ZM872.325 109.306L858.704 115.587L858.735 115.656L858.767 115.723L872.325 109.306ZM873.403 34.8596L860.199 27.7429L860.165 27.8057L860.132 27.8689L873.403 34.8596ZM897.323 11.0279L890.198 -2.17193L897.323 11.0279ZM956.555 4.93354L953.33 19.5828L953.33 19.5828L956.555 4.93354ZM975.344 10.9843L989.196 16.7385L994.8 3.24669L981.461 -2.71152L975.344 10.9843ZM965.901 33.7149L959.007 47.0368L973.496 54.5345L979.754 39.4691L965.901 33.7149ZM951.811 28.4248L947.984 42.9283L947.984 42.9283L951.811 28.4248ZM913.641 31.9261L905.832 19.1189L905.773 19.1549L905.714 19.1915L913.641 31.9261ZM899.511 47.88L886.058 41.245L886.033 41.2963L886.008 41.3478L899.511 47.88ZM898.107 95.2535L883.948 100.206L883.948 100.206L898.107 95.2535ZM909.358 111.254L900.289 123.202L900.383 123.274L900.478 123.343L909.358 111.254ZM936.608 116.757L937.516 131.729L937.925 131.704L938.333 131.657L936.608 116.757ZM942.437 116.016L944.531 130.869L945.045 130.796L945.553 130.688L942.437 116.016ZM947.515 115.085L949.768 129.915L962.491 127.982L962.515 115.113L947.515 115.085ZM947.567 87.073L962.567 87.1008L962.594 72.1008L947.594 72.0731L947.567 87.073ZM922.187 87.0261L907.187 86.9983L907.159 101.998L922.159 102.026L922.187 87.0261ZM922.203 78.3381L975.407 78.4366L975.462 48.4366L922.258 48.3381L922.203 78.3381ZM960.434 63.4088L960.306 132.969L990.306 133.024L990.434 63.4644L960.434 63.4088ZM970.512 118.783C964.227 120.902 957.615 122.589 950.665 123.829L955.934 153.363C964.279 151.874 972.338 149.827 980.099 147.21L970.512 118.783ZM950.622 123.837C944.188 125.004 936.535 125.633 927.567 125.616L927.512 155.616C937.846 155.635 947.365 154.917 955.977 153.355L950.622 123.837ZM927.567 125.616C916.256 125.595 907.568 123.345 900.879 119.583L886.173 145.731C898.265 152.532 912.252 155.588 927.512 155.616L927.567 125.616ZM900.954 119.626C894.546 115.973 889.529 110.591 885.883 102.888L858.767 115.723C864.86 128.594 873.976 138.779 886.098 145.689L900.954 119.626ZM885.947 103.024C882.363 95.2524 880.227 84.8862 880.252 71.3444L850.252 71.2888C850.221 87.827 852.801 102.787 858.704 115.587L885.947 103.024ZM880.252 71.3444C880.274 59.2298 882.611 49.5652 886.675 41.8504L860.132 27.8689C853.379 40.6887 850.281 55.3289 850.252 71.2888L880.252 71.3444ZM886.607 41.9764C890.73 34.3265 896.572 28.4791 904.448 24.2277L890.198 -2.17193C877.248 4.81814 867.143 14.8586 860.199 27.7429L886.607 41.9764ZM904.448 24.2277C912.148 20.0718 922.271 17.6141 935.475 17.6385L935.531 -12.3614C918.655 -12.3927 903.325 -9.2575 890.198 -2.17193L904.448 24.2277ZM935.475 17.6385C941.558 17.6498 947.503 18.3001 953.33 19.5828L959.779 -9.71575C951.826 -11.4665 943.736 -12.3462 935.531 -12.3614L935.475 17.6385ZM953.33 19.5828C959.365 20.9112 964.641 22.6323 969.226 24.6802L981.461 -2.71152C974.775 -5.6978 967.526 -8.01061 959.779 -9.71575L953.33 19.5828ZM961.491 5.23016L952.049 27.9607L979.754 39.4691L989.196 16.7385L961.491 5.23016ZM972.795 20.393C967.54 17.6731 961.788 15.5441 955.638 13.9213L947.984 42.9283C952.357 44.0823 955.999 45.48 959.007 47.0368L972.795 20.393ZM955.638 13.9213C949.065 12.1868 942.271 11.3391 935.299 11.3262L935.243 41.3261C939.802 41.3346 944.034 41.886 947.984 42.9283L955.638 13.9213ZM935.299 11.3262C924.682 11.3065 914.675 13.7276 905.832 19.1189L921.449 44.7334C924.903 42.6274 929.316 41.3152 935.243 41.3261L935.299 11.3262ZM905.714 19.1915C897.121 24.5401 890.586 32.064 886.058 41.245L912.964 54.515C915.229 49.9219 918.114 46.8098 921.567 44.6608L905.714 19.1915ZM886.008 41.3478C881.553 50.5572 879.599 60.8968 879.579 71.9071L909.579 71.9627C909.592 64.4238 910.927 58.7267 913.014 54.4122L886.008 41.3478ZM879.579 71.9071C879.56 82.0114 880.911 91.5215 883.948 100.206L912.266 90.3011C910.566 85.4407 909.565 79.4051 909.579 71.9627L879.579 71.9071ZM883.948 100.206C887.175 109.432 892.548 117.327 900.289 123.202L918.427 99.3062C915.904 97.3918 913.777 94.6203 912.266 90.3011L883.948 100.206ZM900.478 123.343C908.85 129.493 918.93 131.912 929.436 131.932L929.491 101.932C923.452 101.92 920.129 100.555 918.238 99.1653L900.478 123.343ZM929.436 131.932C932.399 131.937 935.108 131.875 937.516 131.729L935.7 101.784C934.096 101.882 932.042 101.936 929.491 101.932L929.436 131.932ZM938.333 131.657C940.562 131.399 942.631 131.137 944.531 130.869L940.343 101.162C938.733 101.389 936.915 101.621 934.883 101.856L938.333 131.657ZM945.553 130.688C947.047 130.371 948.451 130.115 949.768 129.915L945.261 100.255C943.319 100.55 941.338 100.915 939.321 101.343L945.553 130.688ZM962.515 115.113L962.567 87.1008L932.567 87.0453L932.515 115.057L962.515 115.113ZM947.594 72.0731L922.214 72.0261L922.159 102.026L947.539 102.073L947.594 72.0731ZM937.187 87.0538L937.23 63.3659L907.231 63.3103L907.187 86.9983L937.187 87.0538Z" fill="white" mask="url(#path-1-outside-1_1546_8864)"/>
</svg>
